<svg id="declaraciones" xmlns="http://www.w3.org/2000/svg" viewBox="0 0 200 200"><defs><style>.cls-1{fill:#64E38B;}</style></defs><title>1</title><path class="cls-1" d="M44,.5A39.48,39.48,0,1,0,83.46,40,39.47,39.47,0,0,0,44,.5ZM51.62,65H41.41V37l.1-4.59.16-5Q39.13,30,38.14,30.74L32.59,35.2l-4.92-6.15L43.23,16.66h8.39ZM194.07,82.51c-.49-.65-24.91-25.67-25.31-26.16a3,3,0,0,0-2.26-.85,8.36,8.36,0,0,1-2,0c-.6-.06-21,0-33,0-7,0-14-.23-15,11-3.53,0-6,0-6,0-1.79,0-14.11,0-14,13h0c0-.28-.07-.76,0,0h0s-7,0-7,0a15.92,15.92,0,0,0-11.5-10A43.69,43.69,0,0,1,55.9,83.28a18.2,18.2,0,0,0-.38,3.64,18,18,0,0,0,18,18c9.8,0,16.81-7.64,17-17.39,2.24-.11,6.09,0,10,0h19c0,3.1.12,6.59.09,9.77-.09,11.23,7.46,13.49,11.37,14.31,1.14.16,10.23-.24,11.54-.08v29c0,28,.32,41.35,0,42-.22,2.79,0,5-9,5h-31c-3,0-5,1.88-5,4,0,2.45,2,4,5,4h33c14,0,15-6,15-13h9c12.26.09,14-10,14-12h8c13,0,13-5,13-15v-71A3,3,0,0,0,194.07,82.51ZM171.82,68.82c.16,0,.4.16.73.49l10.76,10.76c.49.49-.33.73-2.45.73l-4.15-.49a5.52,5.52,0,0,1-4-2.44A8.17,8.17,0,0,1,171.08,73C171.08,70.21,171.33,68.82,171.82,68.82Zm-36,36.4-4.16-.49a5.54,5.54,0,0,1-4-2.44,8.17,8.17,0,0,1-1.59-4.89c0-2.77.25-4.16.74-4.16.16,0,.4.16.73.49l10.76,10.76C138.79,105,138,105.22,135.86,105.22Zm29.58,65.35c.06,1.93-1.42,3.93-2.94,3.93l-7.82,0-4.18,0v-65a6.9,6.9,0,0,0-1.44-2.57,15.2,15.2,0,0,0-2-2.08c-.81-.73-1.38-1.26-1.71-1.58L130.72,87.86q-1.71-1.71-3.3-3.42a31,31,0,0,0-2.32-2.33,10.05,10.05,0,0,1-1.35-1.34,3.34,3.34,0,0,0-2.25-1.27c-.82.08-18,0-18,0a14.43,14.43,0,0,0,0-2,4.3,4.3,0,0,1,4-4c.37-.18,30,0,35,0v10c0,9,7,15,12.18,14.94,1.14.16,9.51-.1,10.82.06C165.5,98.5,165.77,169.92,165.44,170.57ZM149.79,84.25c0-2.77.25-4.15.74-4.15.16,0,.4.16.73.49L162,91.35c.49.48-.33.73-2.45.73-1.3-.16-6.07.42-8.19-2.94A9,9,0,0,1,149.79,84.25Zm23.45,86.39M187.5,116.5v43c0,3-2.67,3.17-4.19,3.09-1.81-.09-9.81-.09-9.81-.09V95.75a3.25,3.25,0,0,0-.73-2,15.2,15.2,0,0,0-2-2.08q-1.23-1.09-1.71-1.59l-14.67-15.4q-1.71-1.71-3.3-3.43c-1.06-1.13-1.84-1.91-2.32-2.32a10.05,10.05,0,0,1-1.35-1.34,4.26,4.26,0,0,0-2-1.13c-.23-.07-16,0-22,0,0-2,1-4,3-4,.41-.2,34,0,38,0,0,3.1.08,6.82,0,10a16.13,16.13,0,0,0,2.79,9.28,14.78,14.78,0,0,0,9.21,5.72c1.14.16,9.69-.16,11,0Zm-97,46a4.78,4.78,0,0,1-1,0c-1.49.25-5.94,32-6.37,33.08-.44.87-.63,3.92-4.9,3.92H68.75c-5.25,0-5.45-5.77-5.88-7.52-.37-2.48-5-28.2-5.23-28.42,0-.44-.32-.87-1-1.31-3.16-1.75-6.16-10.75-5.88-16V122.06c-.28-10.56,12.67-12.38,12.91-12.42.81-.14,1.81,7.86,3.43,7.84,5.38,1,4.17-2.83,4.25-3.26.13-.72-3.87-5.72,2-5.23,3.25.27,4.17,1.51,1.17,5.51-1,1,0,3.67,2.75,3.8,4.25.2,4.46-8.33,5.55-9,2.62.44,13.7,3.19,13.4,12.75l.3,5.44c4.23,0,30.18,0,31,0,6,0,6,7,1,7h-32v7h32c6,0,6,7,1,7-1.82,0-12.19.41-34,0a68.45,68.45,0,0,1-2,7c4.24,0,34.86,0,36,0,5,0,5,7,1,7C129.88,162.66,117.72,162.49,90.5,162.5Z"/></svg>