<svg id="contrataciones" xmlns="http://www.w3.org/2000/svg" viewBox="0 0 200 200"><defs><style>.cls-1{fill:#ffffff;}</style></defs><title>3</title><path class="cls-1" d="M44.44,1.65A41.25,41.25,0,1,0,85.68,42.89,41.24,41.24,0,0,0,44.44,1.65Zm13.29,64q-5.28,4.05-15.08,4.05a36.58,36.58,0,0,1-14.57-2.72V57.85a33.44,33.44,0,0,0,6.45,2.42,27.3,27.3,0,0,0,7,.93q5.28,0,7.8-1.8c1.68-1.19,2.52-3.12,2.52-5.76a5.21,5.21,0,0,0-2.9-5c-1.93-1-5-1.49-9.25-1.49H35.85V38.93h3.9q5.86,0,8.57-1.53c1.81-1,2.72-2.78,2.72-5.27q0-5.73-7.18-5.73a16.49,16.49,0,0,0-5.06.83,24.68,24.68,0,0,0-5.71,2.86l-4.94-7.35a27.44,27.44,0,0,1,16.46-5Q52.46,17.77,57,21a10.16,10.16,0,0,1,4.54,8.83,11.89,11.89,0,0,1-2.87,8,14.78,14.78,0,0,1-8,4.55v.21q6.1.77,9.25,3.71a10.38,10.38,0,0,1,3.14,8C63,59.11,61.25,62.9,57.73,65.6Zm25.94,90.88q0,3.51-3.51,3.51H75.38c-2.34,0-3.5-1.17-3.5-3.51S73,153,75.38,153h4.78Q83.67,153,83.67,156.48Zm-3.51-21H75.38a3.48,3.48,0,1,1,.12-6.95h5C85.5,128.5,85.5,135.5,80.16,135.45Zm.34-23.95h-5a3.51,3.51,0,1,1,0-7h5A3.51,3.51,0,1,1,80.5,111.5Zm116,12.48a44.47,44.47,0,0,0-12.11-23.74A42,42,0,0,0,160.5,87.5v-15c0-6-4-12-11-12h-10v-12c0-6-4-9-10-9h-39a88,88,0,0,1,.45,9h31c4.59,0,7.59,3,7.59,7v5h-41a44.94,44.94,0,0,1-5.15,9h59.59c4.56,0,7.56,4,7.56,8v10c-2.55,0-4.06-.27-5.33.15-12.11,2.13-21.45,7.51-28.67,16.85h-24c-5,0-6,7,0,7h19c-2.55,4.89-3.58,10.84-4,17h-15c-4.77.06-4.77,7.05,0,7h15c-.07,3.05,2.87,13,5,17h-20c-6,0-6,8,0,8h25c9.13,11.05,19.62,15.79,33,16v6c0,4-2,7-8,7h-69c-5,0-8-3-8-8v-96c-3.11,1.49-6.81,3-10,3v80h-3c-4,0-8-2-8-8.24V88.54c-3.61.43-8,0-10-1v79c0,8,8.24,12,11,12h10v11c0,6,6,10,12.24,10h80.61a12.19,12.19,0,0,0,12.15-12v-12A44.22,44.22,0,0,0,189,157.92Q200,143.1,196.47,124Zm-16.09,29q-9.09,11.47-22.78,13.38-15,2.55-26.45-6.53t-13.7-22.78q-2.24-15,6.85-26.45t22.78-13.7a32.73,32.73,0,0,1,26.45,7q11.46,9.24,13.38,22.62Q189.46,141.52,180.38,153ZM93.5,81.5h28a3.51,3.51,0,1,1,0,7h-28C87.5,88.5,87.5,81.5,93.5,81.5Zm73.65,58.73q0,10.85-10.19,12.75v4.46h-6.38V153.3q-9.56-1.92-12.1-9.56L148,139a5.52,5.52,0,0,0,5.41,3.82c1.49,0,2.23-.53,2.23-1.59s-1.33-2.12-4-3.19a31.49,31.49,0,0,1-8-4.78,10.44,10.44,0,0,1-4-8.6q0-10.52,10.83-12.11v-3.19H157v3.19q7,1.9,9.88,9.24l-9.24,4.46q-1.92-3.83-4.47-3.82c-1.49,0-2.23.63-2.23,1.91,0,1.06,1.38,2.13,4.15,3.19a33.23,33.23,0,0,1,8.12,4.62A9.7,9.7,0,0,1,167.15,140.23Z"/></svg>