<svg id="denuncias" xmlns="http://www.w3.org/2000/svg" viewBox="0 0 200 200"><defs><style>.cls-1{fill:#64E38B;}</style></defs><title>4</title><path class="cls-1" d="M86.64,123.69A36.65,36.65,0,0,1,96.13,135q3.33,6.32,11.16,12.63a40.86,40.86,0,0,0,19.15,8.26,29.85,29.85,0,0,1,6.33,1.62c4.73,2,5,7.89,4.33,10.7q-1.32,7.13-9.49,7.12a36.89,36.89,0,0,1-16-3.72,117.63,117.63,0,0,1-15.49-9.56,19.82,19.82,0,0,0-3.66-2.59l0,37-2.37-1.37Q60.49,178.29,46.5,143q0-11,4-16.52c5-8.94,16.21-7.74,18-7.78C77.5,118.5,82.53,120.34,86.64,123.69Zm-48.77-85-9.27,14H40.78V44.16c0-1.43,0-3.5.17-6.23s.21-4.3.28-4.74H41A37.84,37.84,0,0,1,37.87,38.73ZM41.43,5.14A41.35,41.35,0,1,0,82.78,46.49,41.36,41.36,0,0,0,41.43,5.14ZM57.32,61.05H51.23V71.54H40.78V61.05H19.18V53.61L41.37,20.94h9.86V52.75h6.09Zm59.41,26.06,16.68,28.69c12.59-5.69,25.83-7.6,40.13-7.52L140.59,51.57C134.52,65.46,127.27,77.43,116.73,87.11ZM112.42,90c-4.34,2.91-8.55,5.53-12.55,8.48-6.47,4.77-8.28,13.76-4.53,21.44s11.9,11.41,19.13,8.15c1.6,4.56,3.14,8.93,4.77,13,.64,1.59,1.91,2.57,2.66,2.27,1.37-.55,5.6-3.86,4.43-6.54-.35-.8-5-11.84-5.2-12.56,2.62-1.73,5.24-3.61,8-5.41C123.47,109.06,118.05,99.71,112.42,90ZM160.05,47.2c-.25,1.1-1,5.6-1.15,6.65,16,7.12,21.16,16.05,20.94,36.08l6.08,1.72C191.5,71.5,175.41,50,160.05,47.2ZM165.91,34c-.27,1.44-1.09,7.37-1.22,8.76,19.72,9.86,27.81,23.74,26.57,48.29l7.46,2.44C203.59,65.45,184.73,38.09,165.91,34Zm-8.27,25.57c-.4,2-.8,4-1.18,6,8.12,4.53,12.27,8.12,12.39,21.26l5.77,1.68C176.5,75.5,170.5,63.5,157.64,59.57ZM77.58,77.9A50.06,50.06,0,0,1,50,93.77a21,21,0,0,0,1,7.56q3.16,10.2,15.15,12.47,11.67,2,18.32-6.48A19,19,0,0,0,88,88.86,16.67,16.67,0,0,0,77.58,77.9Z"/></svg>