<svg id="fiscalizacion" xmlns="http://www.w3.org/2000/svg" viewBox="0 0 200 200"><defs><style>.cls-1{fill:#64E38B;}</style></defs><title>5</title><path class="cls-1" d="M41.58,4.25A40.44,40.44,0,1,0,82,44.69,40.43,40.43,0,0,0,41.58,4.25ZM53.8,65.39q-5.1,4.47-14.62,4.47-8.25,0-13.33-2.68v-9a27.63,27.63,0,0,0,6.23,2.32,27.83,27.83,0,0,0,6.73.89q9.59,0,9.58-7.85,0-7.48-9.92-7.48a24.43,24.43,0,0,0-4,.36,27.94,27.94,0,0,0-3.52.76l-4.16-2.23L28.69,19.7H55.53v8.87H37.86L37,38.28,38.13,38a23.71,23.71,0,0,1,5.11-.47c4.79,0,8.59,1.34,11.43,4s4.24,6.36,4.24,11Q58.91,60.93,53.8,65.39Z"/><path class="cls-1" d="M116.4,85.61a21,21,0,0,1,3.75-7.5q-14.06-7.81-29.68-2.5A38.73,38.73,0,0,0,68.29,93.88q-7.82,13.59-2.5,29.84a39.32,39.32,0,0,0,18.74,22q13.74,7.66,29.68,2.35,1.56-1.56,1.1-5.63t-4.53-2.18a27.69,27.69,0,0,1-23-2.5Q77,131.54,73.6,120.6q-3.75-12.5,2.5-23.12A31.24,31.24,0,0,1,93.59,83.11,27.46,27.46,0,0,1,116.4,85.61Z"/><path class="cls-1" d="M113.27,95l8.75,9.37L96.4,130a42.54,42.54,0,0,1-8.74-7.19,62.51,62.51,0,0,1-7.81-9.06L88,105.91l7.18,7.81Z"/><path class="cls-1" d="M87.7,157.2A16.8,16.8,0,1,0,104.5,174,16.8,16.8,0,0,0,87.7,157.2Zm0,25.3a8.5,8.5,0,1,1,8.5-8.5A8.5,8.5,0,0,1,87.7,182.5Z"/><path class="cls-1" d="M105.7,32.2A16.8,16.8,0,1,0,122.5,49,16.8,16.8,0,0,0,105.7,32.2Zm0,25.3a8.5,8.5,0,1,1,8.5-8.5A8.5,8.5,0,0,1,105.7,57.5Z"/><circle class="cls-1" cx="64.2" cy="176.5" r="4.3"/><circle class="cls-1" cx="54.2" cy="170.5" r="4.3"/><circle class="cls-1" cx="48.2" cy="161.5" r="4.3"/><circle class="cls-1" cx="43.2" cy="150.5" r="4.3"/><circle class="cls-1" cx="44.2" cy="139.5" r="4.3"/><circle class="cls-1" cx="50.2" cy="129.5" r="4.3"/><circle class="cls-1" cx="58.2" cy="121.5" r="4.3"/><circle class="cls-1" cx="128.2" cy="46.5" r="4.3"/><circle class="cls-1" cx="138.2" cy="47.5" r="4.3"/><circle class="cls-1" cx="149.2" cy="48.5" r="4.3"/><circle class="cls-1" cx="159.2" cy="52.5" r="4.3"/><circle class="cls-1" cx="168.2" cy="59.5" r="4.3"/><circle class="cls-1" cx="175.2" cy="68.5" r="4.3"/><circle class="cls-1" cx="178.2" cy="79.5" r="4.3"/><circle class="cls-1" cx="176.2" cy="90.5" r="4.3"/><circle class="cls-1" cx="171.2" cy="101.5" r="4.3"/><path class="cls-1" d="M133.08,106.46c.76,4.17,1.71,8,5.43,7.81,3.9.16-.86-4.6.2-7.77h7a9.11,9.11,0,0,1-.49,1.89c-1.38,2.13-2.66,5.78.5,5.88,5.26.16,1.46-10.31,10.47-6.87,5.32,2,8,6.19,8,11.94,0,7.45.08,14.91,0,22.36a24.59,24.59,0,0,1-5.3,15c-1.49,1.95-2.15,4.72-2.63,7.22-1.35,7-2.38,14.11-3.59,21.16-1,5.92-2.77,7.35-8.79,7.37-9.56,0-10.27-.54-11.93-9.92-.76-4.32-1.36-8.66-2.12-13-1-5.55-1.77-10.92-5.36-15.89-2.43-3.38-3.11-8.43-3.46-12.82-.54-6.83-.16-13.73-.14-20.6C120.87,112.3,124.54,108.07,133.08,106.46Z"/><path class="cls-1" d="M186.78,133.25c1.08.22-.82,2.94-.82,4,0,1.91,1.9,1.91,2.71.87,1.16-1.51.26-5,3.71-4.27s6.9,2.7,6.91,6.26c0,9.54,1,20-3.83,28.74-2.51,4.61-2.8,10.88-3.54,16.49-1,8-3.9,7.39-10.27,6.83-1.38-.12-3.64-2.37-3.7-4.1-.56-18.45-7.22-20.35-8.07-30.85-.37-4.65-.13-9.34-.08-14,.06-5.48,2-7.86,8-9.51,1.44.7,1.44,5.46,3.06,5.35,4.1.11.56-4.72,2.19-5.61C183.9,133.42,184.93,133.39,186.78,133.25Z"/><path class="cls-1" d="M196.33,118.87a12,12,0,1,1-24-.44,12,12,0,0,1,24,.44Z"/><path class="cls-1" d="M159.52,85.18a17.42,17.42,0,1,1-17.09-17.67A17.42,17.42,0,0,1,159.52,85.18Z"/></svg>