<svg id="sanciones" xmlns="http://www.w3.org/2000/svg" viewBox="0 0 200 200"><defs><style>.cls-1{fill:#64E38B;}</style></defs><title>6</title><path class="cls-1" d="M149.4,147.2c-1.5-3.4-8.06-17.77-8.81-21.75-1.39-7.45-3.4-27.52-3.8-30-1.29-8-13.29-9-13.6,1.49-.24,8,0,16,0,24,0,1.46-.64,11.53-11.3,10.75A18.51,18.51,0,0,1,98,125c-3.69-4.24-10.52-14.45-9.91-24.36,0,0-3.45-8.69-3.85-9.5-3.08,2.64-5.57,2.93-7.64,21.43-3.12,25,21.78,54.57,23,57.28,0,.11,3,5.06,2.78,8.06V194c-.41,4.64,35.5,6.11,37.66,2.46,1.44-3,.45-15.92.45-18.61a3.51,3.51,0,0,1,1.49-3.6C143.61,173,154.5,164.5,149.4,147.2ZM55.46,47.27a9,9,0,0,1,1.71,5.81,10.22,10.22,0,0,1-1.83,6.53,6.31,6.31,0,0,1-5.24,2.3,6.59,6.59,0,0,1-5.46-2.83,11.06,11.06,0,0,1-2.16-6.93,6.47,6.47,0,0,1,2.29-4.9,7.92,7.92,0,0,1,5.54-2.1A6.22,6.22,0,0,1,55.46,47.27ZM50.69,3.5A41.33,41.33,0,1,0,92,44.83,41.33,41.33,0,0,0,50.69,3.5ZM62.93,65.72q-4.56,4.69-12.62,4.7a18.07,18.07,0,0,1-9.74-2.58,16.87,16.87,0,0,1-6.42-7.55,28.86,28.86,0,0,1-2.26-12q0-15,6.33-22.27t19-7.31a34,34,0,0,1,6.76.52v8.51a27.64,27.64,0,0,0-6.07-.69,20.73,20.73,0,0,0-9,1.66,11.11,11.11,0,0,0-5.19,4.89q-1.72,3.24-2,9.21h.44Q45.55,37,53.07,37q6.75,0,10.58,4.24t3.83,11.72Q67.48,61,62.93,65.72Zm125,38.7C187,102.52,139,2.31,138.84,2.1c-2.58-2.05-5.32-2-8.16-.62S96.59,17.75,91.86,20a50.17,50.17,0,0,1-7.42,58.93c.36.76,19.06,46.57,25.77,45.64,5.29.67,8.52-2.55,8.1-9.73a150,150,0,0,1,0-24.44c1.21-12.84,23.14-12.9,24.23.35.45,5.48,2.56,24.28,3.38,28.12.73,3.41,2.17,6.68,3.3,10,1.59-.64,30.14-14.87,34-16.6C185.73,111.18,189.5,108.5,187.9,104.42Zm-70.68-42.9S107,41,101.41,30.4s11.09-13.9,14-7.69c2,4.19,14,32.79,14,32.79Zm14.26,13.55c-4.78,2.35-9.42,2.18-11.48-2-2-4,.6-8,5.39-10.39s9.31-1.79,11.28,2.22S136.19,72.76,131.48,75.07Z"/></svg>