<?xml version="1.0" encoding="utf-8"?>
<!-- Generator: Adobe Illustrator 22.1.0, SVG Export Plug-In . SVG Version: 6.00 Build 0)  -->
<svg version="1.1" id="Capa_1" xmlns="http://www.w3.org/2000/svg" xmlns:xlink="http://www.w3.org/1999/xlink" x="0px" y="0px"
	 viewBox="0 0 473 214" style="enable-background:new 0 0 473 214;" xml:space="preserve">
<style type="text/css">
	.st0{fill:#285C54;}
	.st1{fill:#8EE19E;}
	.st2{fill:#3A474E;}
	.st3{fill:#FFFFFF;}
</style>
<g>
	<path class="st0" d="M125.9,71.3c0,16.6-5.2,29.3-15.6,38.1c-10.4,8.8-25.1,13.2-44.2,13.2h-14v54.8H19.4V23.2h49.2
		c18.7,0,32.9,4,42.7,12.1C121,43.4,125.9,55.4,125.9,71.3z M52.1,95.8h10.8c10.1,0,17.6-2,22.6-6c5-4,7.5-9.8,7.5-17.3
		c0-7.7-2.1-13.3-6.3-17C82.4,51.9,75.9,50,67,50H52.1V95.8z"/>
	<path class="st1" d="M282.9,98.8c0,25.4-7.2,44.8-21.7,58.3c-14.4,13.5-35.3,20.2-62.6,20.2H155V23.2h48.4
		c25.2,0,44.7,6.6,58.6,19.9C275.9,56.5,282.9,75,282.9,98.8z M248.9,99.7c0-33.1-14.6-49.7-43.9-49.7h-17.4v100.4h14
		C233.2,150.4,248.9,133.5,248.9,99.7z"/>
	<path class="st0" d="M451.6,177.4h-41.5L343,60.8H342c1.3,20.6,2,35.3,2,44.1v72.5h-29.2V23.2h41.2l67,115.5h0.7
		c-1.1-20-1.6-34.2-1.6-42.5v-73h29.4V177.4z"/>
</g>
</svg>
