<?xml version="1.0" encoding="utf-8"?>
<!-- Generator: Adobe Illustrator 22.1.0, SVG Export Plug-In . SVG Version: 6.00 Build 0)  -->
<svg version="1.1" id="Capa_1" xmlns="http://www.w3.org/2000/svg" xmlns:xlink="http://www.w3.org/1999/xlink" x="0px" y="0px"
	 viewBox="0 0 804 554" style="enable-background:new 0 0 804 554;" xml:space="preserve">
<style type="text/css">
	.st0{fill:#285C54;}
	.st1{fill:#8EE19E;}
	.st2{fill:#3A474E;}
	.st3{fill:#FFFFFF;}
</style>
<rect class="st3" width="804" height="554"/>
<g>
	<path class="st0" d="M288.4,231.8c0,11-3.4,19.4-10.3,25.2c-6.9,5.8-16.6,8.7-29.3,8.7h-9.3v36.3h-21.6V200h32.6
		c12.4,0,21.8,2.7,28.2,8C285.2,213.3,288.4,221.3,288.4,231.8z M239.5,248h7.1c6.7,0,11.6-1.3,14.9-3.9c3.3-2.6,5-6.5,5-11.5
		c0-5.1-1.4-8.8-4.2-11.2c-2.8-2.4-7.1-3.6-13-3.6h-9.8V248z"/>
	<path class="st1" d="M392.4,250.1c0,16.8-4.8,29.7-14.4,38.6c-9.6,8.9-23.4,13.4-41.4,13.4h-28.9V200h32.1
		c16.7,0,29.6,4.4,38.8,13.2C387.8,222,392.4,234.3,392.4,250.1z M369.9,250.6c0-21.9-9.7-32.9-29.1-32.9h-11.5v66.5h9.3
		C359.5,284.2,369.9,273,369.9,250.6z"/>
	<path class="st0" d="M504.2,302.1h-27.5l-44.4-77.2h-0.6c0.9,13.6,1.3,23.4,1.3,29.2v48h-19.3V200h27.3l44.3,76.5h0.5
		c-0.7-13.3-1-22.7-1-28.1V200h19.5V302.1z"/>
</g>
</svg>
