<?xml version="1.0" encoding="utf-8"?>
<!-- Generator: Adobe Illustrator 22.1.0, SVG Export Plug-In . SVG Version: 6.00 Build 0)  -->
<svg version="1.1" id="Capa_1" xmlns="http://www.w3.org/2000/svg" xmlns:xlink="http://www.w3.org/1999/xlink" x="0px" y="0px"
	 viewBox="0 0 716 462" style="enable-background:new 0 0 716 462;" xml:space="preserve">
<style type="text/css">
	.st0{fill:#285C54;}
	.st1{fill:#8EE19E;}
	.st2{fill:#3A474E;}
	.st3{fill:#FFFFFF;}
</style>
<rect class="st2" width="716" height="462"/>
<g>
	<path class="st3" d="M271.7,183.9c0,11.2-3.5,19.7-10.5,25.6c-7,5.9-16.9,8.9-29.8,8.9h-9.4v36.9h-22V151.5h33.1
		c12.6,0,22.2,2.7,28.7,8.1C268.5,165.1,271.7,173.1,271.7,183.9z M222.1,200.4h7.2c6.8,0,11.8-1.3,15.2-4c3.4-2.7,5-6.6,5-11.7
		c0-5.2-1.4-9-4.2-11.4c-2.8-2.5-7.2-3.7-13.2-3.7h-10V200.4z"/>
	<path class="st1" d="M377.4,202.4c0,17.1-4.9,30.2-14.6,39.2c-9.7,9.1-23.8,13.6-42.1,13.6h-29.4V151.5h32.6
		c16.9,0,30.1,4.5,39.5,13.4C372.7,173.9,377.4,186.4,377.4,202.4z M354.5,203c0-22.3-9.8-33.4-29.5-33.4h-11.7v67.6h9.4
		C343.9,237.1,354.5,225.7,354.5,203z"/>
	<path class="st3" d="M490.9,255.3h-28l-45.1-78.5h-0.6c0.9,13.9,1.3,23.8,1.3,29.7v48.8h-19.7V151.5h27.7l45.1,77.7h0.5
		c-0.7-13.5-1.1-23-1.1-28.6v-49.1h19.8V255.3z"/>
</g>
</svg>
