<?xml version="1.0" encoding="utf-8"?>
<!-- Generator: Adobe Illustrator 22.1.0, SVG Export Plug-In . SVG Version: 6.00 Build 0)  -->
<svg version="1.1" id="Capa_1" xmlns="http://www.w3.org/2000/svg" xmlns:xlink="http://www.w3.org/1999/xlink" x="0px" y="0px"
	 viewBox="0 0 340 340" style="enable-background:new 0 0 340 340;" xml:space="preserve">
<style type="text/css">
	.st0{fill:#285C54;}
	.st1{fill:#8EE19E;}
	.st2{fill:#3A474E;}
	.st3{fill:#FFFFFF;}
</style>
<rect class="st2" width="340" height="340"/>
<g>
	<path class="st3" d="M98.7,145.6c0,11-3.4,19.5-10.3,25.3c-6.9,5.8-16.7,8.8-29.4,8.8h-9.3v36.4H27.9V113.6h32.7
		c12.4,0,21.9,2.7,28.3,8C95.4,127,98.7,135,98.7,145.6z M49.6,161.8h7.1c6.7,0,11.7-1.3,15-4c3.3-2.6,5-6.5,5-11.5
		c0-5.1-1.4-8.9-4.2-11.3c-2.8-2.4-7.1-3.6-13.1-3.6h-9.9V161.8z"/>
	<path class="st1" d="M203,163.9c0,16.9-4.8,29.8-14.4,38.7s-23.5,13.5-41.6,13.5h-29V113.6h32.2c16.7,0,29.7,4.4,39,13.2
		C198.4,135.7,203,148,203,163.9z M180.4,164.4c0-22-9.7-33-29.1-33h-11.6v66.7h9.3C170,198.1,180.4,186.9,180.4,164.4z"/>
	<path class="st3" d="M315.1,216.1h-27.6l-44.6-77.5h-0.6c0.9,13.7,1.3,23.5,1.3,29.3v48.2h-19.4V113.6h27.4l44.5,76.7h0.5
		c-0.7-13.3-1.1-22.7-1.1-28.2v-48.5h19.5V216.1z"/>
</g>
</svg>
